<svg id="Layer_1" data-name="Layer 1" xmlns="http://www.w3.org/2000/svg" viewBox="0 0 473.29 193.01"><title>HMLogoWhite</title><path d="M429.23,154.1a56.81,56.81,0,0,1,5.72.05c1,.1,2.56.6,2.68,1.17.3,1.43.48,3.42-.28,4.45-2.54,3.45-14.91,4.86-18.46,2.22a3.81,3.81,0,0,1-1-3c.19-2,1.06-4,1.17-6a5.89,5.89,0,0,0-1.14-4.08c-3.95-4-5.45-8-2.75-12.44s2-7.74-.28-12c-2.12-3.89-1.36-8.57-.34-12.79.75-3.11,3.9-3.55,6.21-1.19,3.36,3.43,3.9,7.89,4.34,12.36.12,1.23-.36,2.69.16,3.67.75,1.43,2.15,2.52,3.28,3.75,1.26-1.15,3-2.08,3.68-3.5,2.11-4.14,3.69-8.54,5.73-12.71s3.9-4.39,7-.76c4.18,4.85,3.14,11.49-2.27,15.38-3.69,2.66-6.61,5.17-5.35,11C438.24,143.84,436.55,148.95,429.23,154.1Z" transform="translate(-6.04 -10.99)" style="fill:#d64550"/><text transform="translate(116.29 71.6)" style="font-size:80px;fill:#fff;font-family:Entebbe-Regular, Entebbe">Half </text><path d="M92.57,185.28c13.31-.14,24.08-2.16,34.54-6.15A88.68,88.68,0,0,0,161,155.86a84,84,0,0,0,13.14-19.23c.29-.57.86-1.3.14-1.85s-1.18.16-1.69.49c-9,5.8-18.93,8.45-29.47,9.41A69.36,69.36,0,0,1,114.88,141a61.81,61.81,0,0,1-15.07-7.53c-12.38-8.3-21.3-19.3-26.16-33.44a62.38,62.38,0,0,1-3.42-23.58,67.56,67.56,0,0,1,27.2-51.08A58.93,58.93,0,0,1,112.38,17a4.68,4.68,0,0,0,.72-.31c.35-.2.83-.35.73-.89s-.51-.52-.86-.59a52.82,52.82,0,0,0-6.35-1.25A119.94,119.94,0,0,0,86,13.62,95.13,95.13,0,0,0,65.21,18a86.32,86.32,0,0,0-19.27,9.33A84.63,84.63,0,0,0,22.26,49.54,82.64,82.64,0,0,0,13,65.83,86,86,0,0,0,6.45,91.25a82.6,82.6,0,0,0,2.68,30.47,85.33,85.33,0,0,0,10,22.42,87.87,87.87,0,0,0,14.27,17.19A84.29,84.29,0,0,0,54.5,175.86a87.58,87.58,0,0,0,21.57,7.48C82.2,184.54,88.4,185.59,92.57,185.28Z" transform="translate(-6.04 -10.99)" style="fill:#fee636"/><text transform="translate(191.95 150.93)" style="font-size:80px;fill:#fff;font-family:Entebbe-Regular, Entebbe">Moon</text></svg>