<svg id="Layer_1" data-name="Layer 1" xmlns="http://www.w3.org/2000/svg" viewBox="0 0 441.49 174.35"><title>HMLogoWhite</title><path d="M429.23,154.1a56.81,56.81,0,0,1,5.72.05c1,.1,2.56.6,2.68,1.17.3,1.43.48,3.42-.28,4.45-2.54,3.45-14.91,4.86-18.46,2.22a3.81,3.81,0,0,1-1-3c.19-2,1.06-4,1.17-6a5.89,5.89,0,0,0-1.14-4.08c-3.95-4-5.45-8-2.75-12.44s2-7.74-.28-12c-2.12-3.89-1.36-8.57-.34-12.79.75-3.11,3.9-3.55,6.21-1.19,3.36,3.43,3.9,7.89,4.34,12.36.12,1.23-.36,2.69.16,3.67.75,1.43,2.15,2.52,3.28,3.75,1.26-1.15,3-2.08,3.68-3.5,2.11-4.14,3.69-8.54,5.73-12.71s3.9-4.39,7-.76c4.18,4.85,3.14,11.49-2.27,15.38-3.69,2.66-6.61,5.17-5.35,11C438.24,143.84,436.55,148.95,429.23,154.1Z" transform="translate(-6.04 -10.99)" style="fill:#d64550"/><path d="M121.45,70.83l2.08-.24h4.4V28.75q0-2.88,1-3.32a4.54,4.54,0,0,1,1.6-.44,2.12,2.12,0,0,1,2.32,1.76l.24,2V70.59h29.6V14.75q0-2.72,1.57-3.52a3.63,3.63,0,0,1,1.24-.24,2.17,2.17,0,0,1,2.39,1.76V79.07q0,2.88-1,3.32a4.56,4.56,0,0,1-1.6.44A2.12,2.12,0,0,1,163,81.07l-.24-2V75.79h-29.6v3.28q0,2.88-1.11,3.32a5.14,5.14,0,0,1-1.69.44,2.17,2.17,0,0,1-2.39-1.76V75.79h-4.4q-2.88,0-3.32-1a4.32,4.32,0,0,1-.44-1.64A2,2,0,0,1,121.45,70.83Z" transform="translate(-6.04 -10.99)" style="fill:#fff"/><path d="M172.73,82.09a2,2,0,0,1-.8-1.71,6.24,6.24,0,0,1,.64-2.28l21.88-50.3.79-1.54a2.52,2.52,0,0,1,2.15-1.44,2.07,2.07,0,0,1,1.55.72,9.38,9.38,0,0,1,1.47,2.56l18.16,42h3.6q3.84,0,3.84,2.6a2.25,2.25,0,0,1-.88,2,5.4,5.4,0,0,1-3,.61h-1.28l1.28,2.9.24.63.24.71a4.21,4.21,0,0,1,.16.94,2.44,2.44,0,0,1-2.32,2.35,2,2,0,0,1-1.48-.51c-.35-.34-.68-.69-1-1.06a3.68,3.68,0,0,1-.72-1.25l-2.16-4.7H179.45l-2.24,5.12a12.06,12.06,0,0,1-.6,1.2,3.59,3.59,0,0,1-.72.76,2.1,2.1,0,0,1-1.4.44A2.37,2.37,0,0,1,172.73,82.09Zm8.92-12H213L197.32,34Z" transform="translate(-6.04 -10.99)" style="fill:#fff"/><path d="M233.53,82.83q-2.8,0-3.56-.92t-.76-4.21V28.76q0-2.89,1-3.33a4.52,4.52,0,0,1,1.6-.44q2.08,0,2.32,1.76l.24,2V77.63h42.32a5.24,5.24,0,0,1,2.92.6,2.24,2.24,0,0,1,.84,2q0,2.64-3.28,2.64H233.53Z" transform="translate(-6.04 -10.99)" style="fill:#fff"/><path d="M284.49,95.46l-.24-2V29.63q0-3.76.64-4.4t4.56-.64h31.2a5.17,5.17,0,0,1,2.92.61,2.29,2.29,0,0,1,.84,2,2.29,2.29,0,0,1-.84,2,5.18,5.18,0,0,1-2.92.61h-31.2V45.47h21q2.88,0,3.36,1a4.11,4.11,0,0,1,.48,1.72,2,2,0,0,1-1.76,2.24l-2.08.24h-21V93.46q0,2.88-1,3.37a4.14,4.14,0,0,1-1.72.48A2,2,0,0,1,284.49,95.46Z" transform="translate(-6.04 -10.99)" style="fill:#fff"/><path d="M92.57,185.28c13.31-.14,24.08-2.16,34.54-6.15A88.68,88.68,0,0,0,161,155.86a84,84,0,0,0,13.14-19.23c.29-.57.86-1.3.14-1.85s-1.18.16-1.69.49c-9,5.8-18.93,8.45-29.47,9.41A69.36,69.36,0,0,1,114.88,141a61.81,61.81,0,0,1-15.07-7.53c-12.38-8.3-21.3-19.3-26.16-33.44a62.38,62.38,0,0,1-3.42-23.58,67.56,67.56,0,0,1,27.2-51.08A58.93,58.93,0,0,1,112.38,17a4.68,4.68,0,0,0,.72-.31c.35-.2.83-.35.73-.89s-.51-.52-.86-.59a52.82,52.82,0,0,0-6.35-1.25A119.94,119.94,0,0,0,86,13.62,95.13,95.13,0,0,0,65.21,18a86.32,86.32,0,0,0-19.27,9.33A84.63,84.63,0,0,0,22.26,49.54,82.64,82.64,0,0,0,13,65.83,86,86,0,0,0,6.45,91.25a82.6,82.6,0,0,0,2.68,30.47,85.33,85.33,0,0,0,10,22.42,87.87,87.87,0,0,0,14.27,17.19A84.29,84.29,0,0,0,54.5,175.86a87.58,87.58,0,0,0,21.57,7.48C82.2,184.54,88.4,185.59,92.57,185.28Z" transform="translate(-6.04 -10.99)" style="fill:#fee636"/><path d="M203.12,160.4l-.24-2V107.84l.24-2a2.28,2.28,0,0,1,2.36-1.76q1.57,0,2.6,2.4l.48,1.2L228.24,153l20.08-46.64a6.86,6.86,0,0,1,1.22-2.08,2.1,2.1,0,0,1,1.54-.56,2.41,2.41,0,0,1,2,.84,4.57,4.57,0,0,1,.65,2.76v66.16q0,2.88-1,3.36a4.38,4.38,0,0,1-1.76.48,2,2,0,0,1-2.16-1.77l-.24-2.09V119L231,159.65l-.71,1.38a2.23,2.23,0,0,1-2,1.13,2.7,2.7,0,0,1-1.63-.76,3.72,3.72,0,0,1-1.23-1.79L208.08,119.5v38.9q0,2.88-1,3.32a4.63,4.63,0,0,1-1.68.44A2,2,0,0,1,203.12,160.4Z" transform="translate(-6.04 -10.99)" style="fill:#fff"/><path d="M275.92,160.25a21.13,21.13,0,0,1-8.24,1.92,10.32,10.32,0,0,1-7.84-3.11,11.54,11.54,0,0,1-3-8.3,24,24,0,0,1,.48-4.55,40.75,40.75,0,0,1,1.76-6,60.49,60.49,0,0,1,3.44-7.58,90.87,90.87,0,0,1,6.16-9.69,56.87,56.87,0,0,1,10.16-10.73q6.16-5.11,10.6-6.58a24.28,24.28,0,0,1,7.32-1.48,10.3,10.3,0,0,1,7.84,3,11.22,11.22,0,0,1,2.88,8.06A34.38,34.38,0,0,1,305,127a64,64,0,0,1-7.32,13.72,66.2,66.2,0,0,1-10.48,12.09A41.36,41.36,0,0,1,275.92,160.25Zm-13.84-9.74a7.17,7.17,0,0,0,1.68,5,5.86,5.86,0,0,0,4.55,1.83,15.69,15.69,0,0,0,5.35-1.31q3.35-1.32,8.94-6.14A62.94,62.94,0,0,0,293,138.22a54.16,54.16,0,0,0,6.55-11.64,67.06,67.06,0,0,0,2.28-7,18.45,18.45,0,0,0,.52-4.15,6.63,6.63,0,0,0-1.76-4.78,6.22,6.22,0,0,0-4.71-1.83,19.94,19.94,0,0,0-3.59.6q-2.64.6-8.66,5.34A54.36,54.36,0,0,0,273,125.82a86.43,86.43,0,0,0-6.67,10.49,38.36,38.36,0,0,0-2.83,6.74q-.72,2.59-1.08,4.35A15.65,15.65,0,0,0,262.08,150.5Z" transform="translate(-6.04 -10.99)" style="fill:#fff"/><path d="M323,160.25a21.13,21.13,0,0,1-8.24,1.92A10.32,10.32,0,0,1,307,159a11.54,11.54,0,0,1-3-8.3,24,24,0,0,1,.48-4.55,40.75,40.75,0,0,1,1.76-6,60.49,60.49,0,0,1,3.44-7.58,90.87,90.87,0,0,1,6.16-9.69A56.87,56.87,0,0,1,326,112.22q6.16-5.11,10.6-6.58a24.28,24.28,0,0,1,7.32-1.48,10.3,10.3,0,0,1,7.84,3,11.22,11.22,0,0,1,2.88,8.06A34.38,34.38,0,0,1,352.16,127a64,64,0,0,1-7.32,13.72,66.2,66.2,0,0,1-10.48,12.09A41.36,41.36,0,0,1,323,160.25ZM309.2,150.5a7.17,7.17,0,0,0,1.68,5,5.86,5.86,0,0,0,4.55,1.83,15.69,15.69,0,0,0,5.35-1.31q3.35-1.32,8.94-6.14a62.94,62.94,0,0,0,10.38-11.68,54.16,54.16,0,0,0,6.55-11.64,67.06,67.06,0,0,0,2.28-7,18.45,18.45,0,0,0,.52-4.15,6.63,6.63,0,0,0-1.76-4.78A6.22,6.22,0,0,0,343,108.8a19.94,19.94,0,0,0-3.59.6q-2.64.6-8.66,5.34a54.36,54.36,0,0,0-10.58,11.08,86.43,86.43,0,0,0-6.67,10.49,38.36,38.36,0,0,0-2.83,6.74q-.72,2.59-1.08,4.35A15.65,15.65,0,0,0,309.2,150.5Z" transform="translate(-6.04 -10.99)" style="fill:#fff"/><path d="M358,160.4l-.24-2V108.32l.24-2.48a1.9,1.9,0,0,1,2.41-1.68q1.36,0,2.81,1.91l1.2,1.75,28.06,43v-58q0-2.88,1-3.36A4.12,4.12,0,0,1,395.2,89a2,2,0,0,1,2.24,1.84l.24,2v65.53l-.24,2.16q-.24,1.68-2.24,1.68a5.19,5.19,0,0,1-1.28-.38,3.55,3.55,0,0,1-1.44-1.46L363,115V158.4q0,2.88-1,3.32a4.63,4.63,0,0,1-1.68.44A2,2,0,0,1,358,160.4Z" transform="translate(-6.04 -10.99)" style="fill:#fff"/></svg>