<?xml version="1.0" encoding="utf-8"?>
<!-- Generator: Adobe Illustrator 21.0.0, SVG Export Plug-In . SVG Version: 6.00 Build 0)  -->
<svg version="1.1" id="Layer_1" xmlns="http://www.w3.org/2000/svg" xmlns:xlink="http://www.w3.org/1999/xlink" x="0px" y="0px"
	 viewBox="0 0 455.3 194" style="enable-background:new 0 0 455.3 194;" xml:space="preserve">
<style type="text/css">
	.st0{fill:#D64550;}
	.st1{fill:none;}
	.st2{fill:#FEE636;}
</style>
<g>
	<g>
		<path class="st0" d="M429.2,154.1c2.2,0,4-0.1,5.7,0.1c1,0.1,2.6,0.6,2.7,1.2c0.3,1.4,0.5,3.4-0.3,4.5c-2.5,3.5-14.9,4.9-18.5,2.2
			c-0.7-0.5-1.1-2-1-3c0.2-2,1.1-4,1.2-6c0.1-1.4-0.3-3.2-1.1-4.1c-3.9-4-5.5-8-2.8-12.4c2.7-4.4,2-7.7-0.3-12
			c-2.1-3.9-1.4-8.6-0.3-12.8c0.7-3.1,3.9-3.5,6.2-1.2c3.4,3.4,3.9,7.9,4.3,12.4c0.1,1.2-0.4,2.7,0.2,3.7c0.8,1.4,2.2,2.5,3.3,3.8
			c1.3-1.2,3-2.1,3.7-3.5c2.1-4.1,3.7-8.5,5.7-12.7c2.1-4.3,3.9-4.4,7-0.8c4.2,4.9,3.1,11.5-2.3,15.4c-3.7,2.7-6.6,5.2-5.3,11
			C438.2,143.8,436.6,148.9,429.2,154.1z"/>
	</g>
	<g>
		<rect x="122.3" y="24.7" class="st1" width="328" height="114"/>
		<path d="M121.5,70.8l2.1-0.2h4.4V28.7c0-1.9,0.3-3,1-3.3c0.7-0.3,1.2-0.4,1.6-0.4c1.3,0,2.1,0.6,2.3,1.8l0.2,2v41.8h29.6V14.7
			c0-1.8,0.5-3,1.6-3.5c0.4-0.2,0.9-0.2,1.2-0.2c1.3,0,2.1,0.6,2.4,1.8v2v64.3c0,1.9-0.3,3-1,3.3c-0.7,0.3-1.2,0.4-1.6,0.4
			c-1.3,0-2.1-0.6-2.3-1.8l-0.2-2v-3.3h-29.6v3.3c0,1.9-0.4,3-1.1,3.3s-1.3,0.4-1.7,0.4c-1.3,0-2.1-0.6-2.4-1.8v-2v-3.3h-4.4
			c-1.9,0-3-0.3-3.3-1c-0.3-0.7-0.4-1.2-0.4-1.6C119.8,71.8,120.3,71,121.5,70.8z"/>
		<path d="M172.7,82.1c-0.5-0.4-0.8-0.9-0.8-1.7c0-0.5,0.2-1.3,0.6-2.3l21.9-50.3l0.8-1.5c0.6-1,1.3-1.4,2.1-1.4
			c0.6,0,1.1,0.2,1.5,0.7c0.5,0.5,0.9,1.3,1.5,2.6l18.2,42h3.6c2.6,0,3.8,0.9,3.8,2.6c0,0.9-0.3,1.6-0.9,2c-0.6,0.4-1.6,0.6-3,0.6
			h-1.3l1.3,2.9l0.2,0.6l0.2,0.7c0.1,0.4,0.2,0.7,0.2,0.9c0,0.6-0.2,1.2-0.7,1.6c-0.5,0.5-1,0.7-1.6,0.7c-0.6,0-1.1-0.2-1.5-0.5
			c-0.3-0.3-0.7-0.7-1-1.1c-0.3-0.4-0.6-0.8-0.7-1.3l-2.2-4.7h-35.7l-2.2,5.1c-0.3,0.6-0.5,1-0.6,1.2c-0.1,0.2-0.4,0.5-0.7,0.8
			c-0.3,0.3-0.8,0.4-1.4,0.4C173.8,82.8,173.2,82.6,172.7,82.1z M181.7,70.1H213L197.3,34L181.7,70.1z"/>
		<path d="M233.5,82.8c-1.9,0-3.1-0.3-3.6-0.9c-0.5-0.6-0.8-2-0.8-4.2V28.8c0-1.9,0.3-3,1-3.3c0.7-0.3,1.2-0.4,1.6-0.4
			c1.4,0,2.2,0.6,2.3,1.8l0.2,2v48.9h42.3c1.4,0,2.4,0.2,2.9,0.6c0.6,0.4,0.8,1.1,0.8,2c0,1.8-1.1,2.6-3.3,2.6h-0.5H233.5z"/>
		<path d="M284.5,95.5l-0.2-2V29.6c0-2.5,0.2-4,0.6-4.4c0.4-0.4,1.9-0.6,4.6-0.6h31.2c1.4,0,2.4,0.2,2.9,0.6s0.8,1.1,0.8,2
			c0,0.9-0.3,1.6-0.8,2s-1.5,0.6-2.9,0.6h-31.2v15.7h21c1.9,0,3,0.3,3.4,1c0.3,0.7,0.5,1.2,0.5,1.7c0,1.3-0.6,2-1.8,2.2l-2.1,0.2
			h-21v42.8c0,1.9-0.3,3-1,3.4c-0.7,0.3-1.2,0.5-1.7,0.5C285.5,97.3,284.7,96.7,284.5,95.5z"/>
	</g>
	<g>
		<g>
			<path class="st2" d="M92.6,185.3c13.3-0.1,24.1-2.2,34.5-6.1c13.2-5,24.4-12.9,33.9-23.3c5.3-5.8,9.6-12.2,13.1-19.2
				c0.3-0.6,0.9-1.3,0.1-1.9c-0.6-0.5-1.2,0.2-1.7,0.5c-9,5.8-18.9,8.4-29.5,9.4c-9.7,0.9-19.1-0.7-28.3-3.7
				c-5.4-1.8-10.4-4.4-15.1-7.5c-12.4-8.3-21.3-19.3-26.2-33.4c-2.6-7.6-3.8-15.5-3.4-23.6c0.5-11.1,3.6-21.4,9.2-31
				c4.6-7.9,10.7-14.6,18-20.1c4.6-3.4,9.5-6.4,14.9-8.4c0.2-0.1,0.5-0.2,0.7-0.3c0.4-0.2,0.8-0.3,0.7-0.9c-0.1-0.4-0.5-0.5-0.9-0.6
				c-2.1-0.4-4.2-1.1-6.3-1.3C99.8,13.3,92.9,13,86,13.6c-7.1,0.6-14,2.2-20.8,4.4c-6.8,2.2-13.2,5.5-19.3,9.3
				c-9.4,5.8-17.2,13.3-23.7,22.2c-3.7,5.1-6.8,10.5-9.3,16.3c-3.5,8.1-5.6,16.6-6.5,25.4c-1,10.4-0.1,20.5,2.7,30.5
				c2.2,7.9,5.6,15.4,10,22.4c4,6.4,8.8,12,14.3,17.2c6.3,5.9,13.3,10.7,21.1,14.5c6.9,3.4,14.1,6,21.6,7.5
				C82.2,184.5,88.4,185.6,92.6,185.3z"/>
		</g>
	</g>
	<g>
		<rect x="198" y="104" class="st1" width="281.3" height="100"/>
		<path d="M203.1,160.4l-0.2-2v-50.6l0.2-2c0.1-0.5,0.4-1,0.9-1.3c0.5-0.3,1-0.5,1.5-0.4c1,0,1.9,0.8,2.6,2.4l0.5,1.2l19.7,45.4
			l20.1-46.6c0.4-1,0.8-1.7,1.2-2.1c0.4-0.4,0.9-0.6,1.5-0.6c0.9,0,1.6,0.3,2,0.8s0.6,1.5,0.6,2.8v2.2v3.4v60.5c0,1.9-0.3,3-1,3.4
			c-0.7,0.3-1.3,0.5-1.8,0.5c-1.2,0-1.9-0.6-2.2-1.8l-0.2-2.1V119L231,159.7l-0.7,1.4c-0.5,0.8-1.1,1.1-2,1.1c-0.5,0-1-0.3-1.6-0.8
			s-1-1.1-1.2-1.8l-17.3-40.1v38.9c0,1.9-0.3,3-1,3.3c-0.7,0.3-1.3,0.4-1.7,0.4C204,162.2,203.3,161.6,203.1,160.4z"/>
		<path d="M275.9,160.2c-3,1.3-5.7,1.9-8.2,1.9c-3.3,0-5.9-1-7.8-3.1s-3-4.8-3-8.3c0-1.4,0.2-2.9,0.5-4.5c0.3-1.6,0.9-3.6,1.8-6
			c0.9-2.3,2-4.9,3.4-7.6c1.4-2.7,3.5-5.9,6.2-9.7c2.7-3.8,6.1-7.3,10.2-10.7c4.1-3.4,7.6-5.6,10.6-6.6s5.4-1.5,7.3-1.5
			c3.3,0,5.9,1,7.8,3c1.9,2,2.9,4.7,2.9,8.1c0,3.4-0.8,7.3-2.5,11.8c-1.7,4.4-4.1,9-7.3,13.7c-3.2,4.7-6.7,8.7-10.5,12.1
			C283.5,156.2,279.7,158.7,275.9,160.2z M262.1,150.5c0,2.1,0.6,3.8,1.7,5c1.1,1.2,2.6,1.8,4.6,1.8c1.3,0,3.1-0.4,5.3-1.3
			c2.2-0.9,5.2-2.9,8.9-6.1c3.7-3.2,7.2-7.1,10.4-11.7c3.2-4.6,5.4-8.5,6.5-11.6c1.2-3.2,1.9-5.5,2.3-7c0.3-1.5,0.5-2.9,0.5-4.1
			c0-2-0.6-3.6-1.8-4.8c-1.2-1.2-2.7-1.8-4.7-1.8c-0.6,0-1.8,0.2-3.6,0.6c-1.8,0.4-4.6,2.2-8.7,5.3s-7.5,6.9-10.6,11.1
			c-3,4.2-5.3,7.7-6.7,10.5c-1.4,2.8-2.4,5-2.8,6.7c-0.5,1.7-0.8,3.2-1.1,4.3S262.1,149.6,262.1,150.5z"/>
		<path d="M323,160.2c-3,1.3-5.7,1.9-8.2,1.9c-3.3,0-5.9-1-7.8-3.1s-3-4.8-3-8.3c0-1.4,0.2-2.9,0.5-4.5c0.3-1.6,0.9-3.6,1.8-6
			c0.9-2.3,2-4.9,3.4-7.6c1.4-2.7,3.5-5.9,6.2-9.7c2.7-3.8,6.1-7.3,10.2-10.7c4.1-3.4,7.6-5.6,10.6-6.6s5.4-1.5,7.3-1.5
			c3.3,0,5.9,1,7.8,3c1.9,2,2.9,4.7,2.9,8.1c0,3.4-0.8,7.3-2.5,11.8c-1.7,4.4-4.1,9-7.3,13.7c-3.2,4.7-6.7,8.7-10.5,12.1
			C330.6,156.2,326.8,158.7,323,160.2z M309.2,150.5c0,2.1,0.6,3.8,1.7,5c1.1,1.2,2.6,1.8,4.6,1.8c1.3,0,3.1-0.4,5.3-1.3
			c2.2-0.9,5.2-2.9,8.9-6.1c3.7-3.2,7.2-7.1,10.4-11.7c3.2-4.6,5.4-8.5,6.5-11.6c1.2-3.2,1.9-5.5,2.3-7c0.3-1.5,0.5-2.9,0.5-4.1
			c0-2-0.6-3.6-1.8-4.8c-1.2-1.2-2.7-1.8-4.7-1.8c-0.6,0-1.8,0.2-3.6,0.6c-1.8,0.4-4.6,2.2-8.7,5.3s-7.5,6.9-10.6,11.1
			c-3,4.2-5.3,7.7-6.7,10.5c-1.4,2.8-2.4,5-2.8,6.7c-0.5,1.7-0.8,3.2-1.1,4.3S309.2,149.6,309.2,150.5z"/>
		<path d="M358,160.4l-0.2-2v-50.1l0.2-2.5c0.2-1.3,1-1.8,2.4-1.7c0.9,0,1.8,0.6,2.8,1.9l1.2,1.8l28.1,43v-58c0-1.9,0.3-3,1-3.4
			s1.2-0.5,1.7-0.5c1.3,0,2,0.6,2.2,1.8l0.2,2v65.5l-0.2,2.2c-0.2,1.1-0.9,1.7-2.2,1.7c-0.4-0.1-0.8-0.2-1.3-0.4
			c-0.5-0.2-1-0.7-1.4-1.5L363,115v43.4c0,1.9-0.3,3-1,3.3c-0.7,0.3-1.3,0.4-1.7,0.4C358.9,162.2,358.2,161.6,358,160.4z"/>
	</g>
</g>
</svg>
