<svg id="Layer_1" data-name="Layer 1" xmlns="http://www.w3.org/2000/svg" viewBox="0 0 168.62 172.04"><defs><style>.cls-1{fill:#fee636;}</style></defs><title>moon</title><path class="cls-1" d="M92.57,185.28c13.31-.14,24.08-2.16,34.54-6.15A88.68,88.68,0,0,0,161,155.86a84,84,0,0,0,13.14-19.23c.29-.57.86-1.3.14-1.85s-1.18.16-1.69.49c-9,5.8-18.93,8.45-29.47,9.41A69.36,69.36,0,0,1,114.88,141a61.81,61.81,0,0,1-15.07-7.53c-12.38-8.3-21.3-19.3-26.16-33.44a62.38,62.38,0,0,1-3.42-23.58,67.56,67.56,0,0,1,27.2-51.08A58.93,58.93,0,0,1,112.38,17a4.68,4.68,0,0,0,.72-.31c.35-.2.83-.35.73-.89s-.51-.52-.86-.59a52.82,52.82,0,0,0-6.35-1.25A119.94,119.94,0,0,0,86,13.62,95.13,95.13,0,0,0,65.21,18a86.32,86.32,0,0,0-19.27,9.33A84.63,84.63,0,0,0,22.26,49.54,82.64,82.64,0,0,0,13,65.83,86,86,0,0,0,6.45,91.25a82.6,82.6,0,0,0,2.68,30.47,85.33,85.33,0,0,0,10,22.42,87.87,87.87,0,0,0,14.27,17.19A84.29,84.29,0,0,0,54.5,175.86a87.58,87.58,0,0,0,21.57,7.48C82.2,184.54,88.4,185.59,92.57,185.28Z" transform="translate(-6.04 -13.29)"/></svg>