<?xml version="1.0" standalone="no"?>
<!DOCTYPE svg PUBLIC "-//W3C//DTD SVG 20010904//EN"
 "http://www.w3.org/TR/2001/REC-SVG-20010904/DTD/svg10.dtd">
<svg version="1.0" xmlns="http://www.w3.org/2000/svg"
 width="718.000000pt" height="718.000000pt" viewBox="0 0 718.000000 718.000000"
 preserveAspectRatio="xMidYMid meet">
<metadata>
Created by potrace 1.11, written by Peter Selinger 2001-2013
</metadata>
<g transform="translate(0.000000,718.000000) scale(0.100000,-0.100000)"
fill="#000000" stroke="none">
<path d="M3548 7175 c-2 -1 -48 -5 -103 -9 -94 -6 -127 -10 -200 -21 -16 -3
-48 -7 -70 -10 -226 -32 -660 -150 -838 -228 -28 -13 -72 -32 -97 -43 -237
-101 -595 -318 -815 -493 -261 -208 -439 -394 -693 -726 -31 -40 -154 -235
-199 -314 -219 -385 -376 -858 -428 -1286 -4 -27 -8 -60 -10 -72 -24 -149 -24
-611 0 -764 2 -13 6 -46 10 -74 12 -95 16 -120 20 -135 3 -8 7 -33 10 -55 12
-80 76 -326 119 -451 133 -395 315 -734 571 -1064 199 -257 486 -532 760 -728
410 -293 986 -540 1435 -617 19 -3 51 -10 70 -15 19 -5 55 -12 80 -15 25 -3
52 -8 60 -10 101 -28 453 -44 665 -31 93 6 251 19 265 21 8 2 44 6 80 10 36 4
74 9 85 11 11 2 36 6 55 9 19 3 46 7 60 10 14 3 41 8 60 11 19 3 53 10 75 16
22 5 51 12 65 15 32 5 246 66 327 92 271 87 704 301 898 443 281 206 352 265
541 453 284 283 457 516 646 873 81 153 58 174 -90 84 -94 -58 -262 -142 -312
-157 -14 -4 -29 -11 -35 -15 -21 -16 -276 -96 -370 -116 -67 -15 -174 -36
-198 -39 -15 -2 -47 -7 -70 -10 -23 -3 -53 -8 -67 -10 -170 -26 -513 -26 -700
0 -72 9 -128 19 -180 30 -14 3 -34 7 -45 9 -66 13 -175 41 -280 73 -268 79
-488 185 -735 352 -52 35 -120 84 -150 107 -30 24 -60 47 -65 51 -97 71 -365
340 -423 425 -9 13 -19 25 -22 28 -12 9 -108 147 -161 232 -46 73 -179 328
-179 343 0 3 -9 24 -19 48 -33 71 -98 268 -126 383 -33 134 -52 245 -70 419
-10 89 -4 383 9 500 39 331 123 625 262 915 188 389 456 723 802 998 174 137
459 308 622 372 98 38 120 52 120 71 0 11 -9 21 -22 24 -13 3 -52 12 -88 20
-36 9 -72 17 -80 19 -37 9 -101 16 -170 21 -41 3 -106 8 -145 11 -65 6 -512
13 -517 9z"/>
</g>
</svg>
